<svg xmlns="http://www.w3.org/2000/svg" xmlns:xlink="http://www.w3.org/1999/xlink" id="Layer_3" data-name="Layer 3" viewBox="0 0 500 500"><defs><style>      .cls-1 {        fill: #152e50;      }      .cls-2 {        fill: url(#Unbenannter_Verlauf_3);      }      .cls-3 {        fill: #fff;      }      .cls-4 {        fill: none;      }    </style><linearGradient id="Unbenannter_Verlauf_3" data-name="Unbenannter Verlauf 3" x1="145.39" y1="138.82" x2="347.39" y2="353.82" gradientTransform="translate(0 500.16) scale(1 -1)" gradientUnits="userSpaceOnUse"><stop offset="0" stop-color="#57992b"></stop><stop offset="1" stop-color="#99d063"></stop></linearGradient></defs><circle class="cls-2" cx="250" cy="250" r="167.25"></circle><g><path class="cls-1" d="M458.72,286.95c-3.11-.64-6.25,1.39-6.91,4.56-19.51,95.32-104.39,164.49-201.82,164.49-110.77,0-201.37-87.87-205.81-197.56l11.39,17.1c1.12,1.7,2.99,2.61,4.87,2.61h0c1.12,0,2.24-.33,3.25-.99,2.69-1.8,3.4-5.43,1.62-8.12l-22.29-33.44c-2.15-3.25-7.59-3.25-9.74,0l-22.29,33.44c-1.79,2.69-1.08,6.33,1.62,8.12,2.7,1.78,6.34,1.08,8.12-1.62l11.72-17.59c4.2,116.38,100.16,209.76,217.55,209.76h0c102.96,0,192.66-73.12,213.29-173.84.64-3.17-1.39-6.27-4.57-6.92h0Z"></path><path class="cls-1" d="M487.39,211.67c-2.72-1.79-6.34-1.08-8.12,1.62l-12.33,18.51c-9.28-111.56-103.02-199.51-216.94-199.51-102.01,0-191.53,72.29-212.86,171.88-.69,3.15,1.32,6.26,4.48,6.95,3.18.62,6.29-1.32,6.95-4.5C68.79,112.39,153.48,44,250,44c106.54,0,194.43,81.27,204.94,185.07l-10.51-15.78c-1.79-2.69-5.4-3.4-8.12-1.62-2.69,1.8-3.4,5.43-1.62,8.12l22.29,33.45s.01.02.02.02c.11.16.23.32.35.47.09.11.2.22.3.33.04.04.07.08.11.11.11.11.23.21.34.31.03.03.06.05.09.07.37.3.77.54,1.2.74.08.04.15.07.23.11.1.04.2.08.3.11.11.04.23.08.34.11.09.02.18.05.27.07.14.03.28.06.43.08.07,0,.15.03.22.03.22.03.44.04.67.04h.01c.23,0,.46-.02.68-.04.04,0,.09,0,.13-.02.19-.03.37-.06.56-.11.04,0,.08-.02.13-.03.2-.05.39-.11.57-.18.02,0,.04-.02.07-.02.44-.17.85-.39,1.23-.66,0,0,.01,0,.02,0,.18-.13.35-.27.52-.41.02-.02.03-.03.05-.05.39-.36.74-.77,1.02-1.23l22.18-33.29c1.79-2.69,1.08-6.33-1.62-8.12h0Z"></path></g><path class="cls-3" d="M237.26,345.05c-.62,0-1.23-.1-1.85-.3-2.38-.8-4-3.04-4-5.56v-70.6h-45.11c-2.22-.01-4.25-1.27-5.24-3.25-.98-1.99-.78-4.36.55-6.13l76.44-101.94c1.51-2.01,4.12-2.79,6.54-2.05,2.38.8,4,3.04,4,5.56v70.6h45.11c2.22,0,4.25,1.26,5.24,3.24.98,1.98.78,4.36-.55,6.13l-76.44,101.95c-1.12,1.51-2.88,2.34-4.69,2.34h0ZM198,256.88h39.26c3.22.01,5.85,2.63,5.85,5.87v58.89l58.88-78.53h-39.26c-3.22,0-5.85-2.62-5.85-5.85v-58.89l-58.88,78.52h0Z"></path><rect class="cls-4" width="500" height="500"></rect></svg>