<svg xmlns="http://www.w3.org/2000/svg" xmlns:xlink="http://www.w3.org/1999/xlink" id="Layer_3" data-name="Layer 3" viewBox="0 0 500 500"><defs><style>      .cls-1 {        fill: #152e50;      }      .cls-2 {        fill: none;      }      .cls-3 {        fill: url(#Unbenannter_Verlauf_4);      }    </style><linearGradient id="Unbenannter_Verlauf_4" data-name="Unbenannter Verlauf 4" x1="228.54" y1="498.36" x2="289.54" y2="341.36" gradientUnits="userSpaceOnUse"><stop offset="0" stop-color="#57992b"></stop><stop offset="1" stop-color="#99d063"></stop></linearGradient></defs><path class="cls-1" d="M193.76,436.66l-12.07-60.55c-3.91-19.54-18.1-34.53-36.32-39.69,8.53-10,13.69-22.95,13.69-37.09,0-31.57-25.68-57.25-57.25-57.25s-57.25,25.68-57.25,57.25c0,14.14,5.17,27.1,13.7,37.1-18.23,5.16-32.43,20.15-36.33,39.69l-12.06,60.47c-1.07,5.03.18,10.23,3.44,14.24,3.35,4.12,8.32,6.49,13.67,6.49h149.66c5.35-.01,10.33-2.38,13.67-6.5,3.26-4.02,4.51-9.21,3.45-14.16ZM101.81,254.39c24.78,0,44.94,20.16,44.94,44.94s-20.16,44.94-44.94,44.94-44.94-20.16-44.94-44.94,20.16-44.94,44.94-44.94ZM180.74,443.09c-.99,1.22-2.48,1.92-4.1,1.92H26.98c-1.62,0-3.11-.69-4.1-1.92-.54-.66-1.37-2.04-.95-4.01l12.07-60.55c3.56-17.77,18.22-30.6,35.95-31.66,9.12,6.13,20.08,9.71,31.86,9.71s22.77-3.59,31.88-9.72c17.72,1.08,32.38,13.9,35.93,31.66l12.08,60.64c.41,1.89-.42,3.27-.96,3.93Z"></path><path class="cls-1" d="M489.14,436.66l-12.07-60.55c-3.91-19.54-18.1-34.53-36.32-39.69,8.53-10,13.69-22.95,13.69-37.09,0-31.57-25.68-57.25-57.25-57.25s-57.25,25.68-57.25,57.25c0,14.14,5.17,27.1,13.7,37.1-18.23,5.16-32.43,20.15-36.33,39.69l-12.06,60.47c-1.07,5.03.18,10.23,3.44,14.24,3.35,4.12,8.32,6.49,13.67,6.49h149.66c5.35-.01,10.33-2.38,13.67-6.5,3.26-4.02,4.51-9.21,3.45-14.16ZM397.19,254.39c24.78,0,44.94,20.16,44.94,44.94s-20.16,44.94-44.94,44.94-44.94-20.16-44.94-44.94,20.16-44.94,44.94-44.94ZM476.12,443.09c-.99,1.22-2.48,1.92-4.1,1.92h-149.66c-1.62,0-3.11-.69-4.1-1.92-.54-.66-1.37-2.04-.95-4.01l12.07-60.55c3.56-17.77,18.22-30.6,35.95-31.66,9.12,6.13,20.08,9.71,31.86,9.71s22.77-3.59,31.88-9.72c17.72,1.08,32.38,13.9,35.93,31.66l12.08,60.64c.41,1.89-.42,3.27-.96,3.93Z"></path><rect class="cls-1" x="298.73" y="97.45" width="98.45" height="12.31"></rect><rect class="cls-1" x="298.73" y="146.68" width="98.45" height="12.31"></rect><g><rect class="cls-1" x="120.27" y="60.53" width="135.38" height="12.31"></rect><rect class="cls-1" x="120.27" y="109.76" width="135.38" height="12.31"></rect></g><path class="cls-3" d="M347.71,474.96l-9.58-47.89-4.27-21.34c-4.79-23.95-25.52-41.29-49.8-41.93,14.45-10.63,23.83-27.75,23.83-47.06,0-32.25-26.14-58.39-58.39-58.39s-58.39,26.14-58.39,58.39c0,19.31,9.38,36.43,23.84,47.06-24.29.64-45.01,17.99-49.8,41.93l-4.27,21.34-9.58,47.89c-1.6,7.98,4.51,15.42,12.64,15.42h171.13c8.13,0,14.24-7.44,12.64-15.42Z"></path><path class="cls-1" d="M89.5,188.1c-3.34,0-6.66-.91-9.63-2.73-5.53-3.38-8.83-9.27-8.83-15.76V29.76c0-10.18,8.28-18.46,18.46-18.46h196.92c10.18,0,18.46,8.28,18.46,18.46v123.07c0,10.18-8.28,18.46-18.46,18.46h-158.24c-.96,0-1.94.24-2.81.69l-27.44,14.07c-2.68,1.37-5.55,2.04-8.43,2.04h0ZM89.5,23.6c-3.39,0-6.15,2.76-6.15,6.15v139.85c0,3.11,2.07,4.71,2.94,5.25.9.55,3.26,1.67,6.01.23l27.45-14.07c2.62-1.33,5.53-2.03,8.43-2.03h158.24c3.39,0,6.15-2.76,6.15-6.15V29.76c0-3.39-2.76-6.15-6.15-6.15H89.5Z"></path><path class="cls-1" d="M421.81,225.02c-2.87,0-5.76-.69-8.44-2.07l-27.44-14.05c-.87-.46-1.83-.69-2.8-.69h-158.25c-10.18,0-18.46-8.28-18.46-18.46v-24.61h12.31v24.61c0,3.39,2.76,6.15,6.15,6.15h158.25c2.92,0,5.83.71,8.43,2.04l27.44,14.05c2.76,1.42,5.12.32,6.01-.22.88-.54,2.94-2.14,2.94-5.25V66.68c0-3.39-2.76-6.15-6.15-6.15h-123.07v-12.31h123.07c10.18,0,18.46,8.28,18.46,18.46v139.85c0,6.49-3.31,12.38-8.85,15.76-2.96,1.81-6.27,2.73-9.6,2.73Z"></path><rect class="cls-2" width="500" height="500"></rect></svg>