<svg xmlns="http://www.w3.org/2000/svg" xmlns:xlink="http://www.w3.org/1999/xlink" id="Layer_4" data-name="Layer 4" viewBox="0 0 500 500"><defs><style>      .cls-1 {        fill: #152e50;      }      .cls-2 {        fill: #fff;      }      .cls-3 {        fill: none;      }      .cls-4 {        fill: url(#Unbenannter_Verlauf);      }    </style><linearGradient id="Unbenannter_Verlauf" data-name="Unbenannter Verlauf" x1="264.69" y1="-5.81" x2="409.69" y2="-104.81" gradientTransform="translate(0 162)" gradientUnits="userSpaceOnUse"><stop offset="0" stop-color="#57992b"></stop><stop offset="1" stop-color="#99d063"></stop></linearGradient></defs><g><path class="cls-1" d="M490,210.5v-12.5c-.9,0-17.1.3-30.9,17.8-13.8-3.5-29,1.1-37.3,4.4-3.5-8.1-7.7-15.9-12.5-23.3-34.2-53.1-98.8-86.22-168.6-86.1-10.21.02-12.3.3-18.2.8-11,.8-22.4,2.7-34.5,5.6-11.3-21.7-31.8-37.3-55.8-42.2-5.4-1-11.1.4-15.5,4s-6.9,8.9-6.9,14.6v57.2c-11.4,6.6-46.9,30.4-52.5,72.3h-16.1c-17.2,0-31.2,14-31.2,31.2v49.9c0,17.2,14,31.2,31.2,31.2h17.4c3.4,8.5,7.9,17.1,14,26.8,9.5,14.8,22,28.5,37.1,40.8v63.3c0,10.5,8.2,18.7,18.7,18.7h27.7c8.6,0,16.2-6,18-14.2l7.9-31.3c19,5.4,38.7,8.1,58.6,8.1s17.8-.6,25.6-1.8c14.1-1.4,28.5-4.5,43-9.2v29.7c0,10.5,8.2,18.7,18.7,18.7h27.7c8.6,0,16.2-6,18-14.2l22.7-90.3c.2-.7.2-1.3.2-2,24.2-28.6,37.52-63.7,37.4-99.2-.09-26.08-2.81-28.8-7.7-47.2,5.9-2.4,16.2-5.7,25.7-4.7-1.9,3.7-3.6,7.8-5.2,12.5-4.6,13.9-2.2,26,6.5,32.4,3.5,2.6,7.7,3.9,11.8,3.9h0c4.2,0,8.3-1.3,11.9-3.9,8.7-6.4,11.2-18.5,6.5-32.4-2.7-8-6.9-14.2-12.7-18.4,9.3-10.3,18.7-10.8,19.2-10.8l.1-.2h0ZM383.1,374.6c-1.6,1.8-2.1,4.5-1.1,6.7.2.5.5.9.8,1.3l-21.4,85c-.6,2.7-3.1,4.6-5.9,4.6h-27.7c-3.5,0-6.2-2.7-6.2-6.2v-38.4c0-2-1-3.9-2.7-5.1-1.1-.7-2.3-1.1-3.6-1.1h0c-.7,0-1.5.1-2.1.4-16.3,6-32.6,9.8-48.7,11.4-7.5,1.1-15.3,1.7-24,1.7-20.8,0-41.4-3.2-61.2-9.4-1.6-.5-3.4-.3-4.9.5s-2.6,2.2-3,3.9l-9.5,37.8c-.6,2.7-3.1,4.6-5.9,4.6h-27.7c-3.6,0-6.2-2.7-6.2-6.2v-66.3c0-1.9-.9-3.7-2.4-4.9-15.1-11.9-27.5-25.2-36.7-39.6-6.6-10.4-11.2-19.5-14.4-28.4-.9-2.5-3.2-4.1-5.9-4.1h-21.7c-10.3,0-18.7-8.4-18.7-18.7v-49.9c0-10.3,8.4-18.7,18.7-18.7h21.7c3.3,0,6-2.5,6.2-5.8,3-45.6,49.2-69.4,49.7-69.6,2.1-1.1,3.4-3.2,3.4-5.6v-60.8c0-1.9.8-3.8,2.3-5,.9-.7,2.7-1.8,5.1-1.4,21.7,4.5,40.1,19.4,49.2,39.8,1.2,2.8,4.2,4.3,7.3,3.5,13.3-3.5,25.5-5.7,37.3-6.5,5.6-.5,11.4-.7,17.2-.7,65.6,0,126.2,30.8,158.1,80.5,14.8,22.6,22.7,48.7,22.7,75.4s-13.2,68-38.3,95.5l.2-.2h0ZM471.6,243.6c2.8,8.5,2.1,15.4-2.1,18.4-2.6,1.9-6.4,1.9-9,0-4.1-3-4.9-9.9-2.1-18.4,1.5-4.7,3.3-8.7,5.2-12.1h0c3.5,2.7,6.2,6.7,8,12.1Z"></path><circle class="cls-1" cx="116.03" cy="204.16" r="12.5"></circle></g><rect class="cls-3" width="500" height="500"></rect><circle class="cls-4" cx="340.4" cy="104.5" r="87.3"></circle><path class="cls-1" d="M253.6,161.1l-.9,12.4c38.9,2.9,73.9,19.6,96.1,45.9h0l9.5-8c-24.4-28.8-62.5-47.2-104.7-50.3h0Z"></path><path class="cls-2" d="M368.8,124.2l10,9.7c-7.7,9.2-19.6,14.2-33.5,14.2-21.4,0-38.4-12.5-43.6-31h-13.8v-8.5h12.2c-.1-1.3-.1-2.7-.1-4.1s0-2.8.1-4.1h-12.2v-8.5h13.8c5.2-18.5,22.2-30.95,43.6-31,17.7-.04,25.87,8.13,33.5,14.2l-10,9.6c-6.2-6.7-13.8-9.9-22.6-9.9-13,0-23.2,6.7-27.8,17.2h34.7v8.5h-37c-.1,1.3-.2,2.7-.2,4.1s.1,2.8.2,4.1h37v8.5h-34.7c4.6,10.5,14.9,17.2,27.8,17.2s16.5-3.3,22.6-10v-.2h0Z"></path></svg>