<svg xmlns="http://www.w3.org/2000/svg" xmlns:xlink="http://www.w3.org/1999/xlink" id="Layer_4" data-name="Layer 4" viewBox="0 0 500 500"><defs><style>      .cls-1 {        fill: #152e50;      }      .cls-2 {        fill: url(#Unbenannter_Verlauf_3);      }      .cls-3 {        fill: #fff;      }      .cls-4 {        fill: none;      }    </style><linearGradient id="Unbenannter_Verlauf_3" data-name="Unbenannter Verlauf 3" x1="140.84" y1="211.49" x2="337.84" y2="-25.51" gradientTransform="translate(0 159.84)" gradientUnits="userSpaceOnUse"><stop offset="0" stop-color="#57992b"></stop><stop offset="1" stop-color="#99d063"></stop></linearGradient></defs><circle class="cls-2" cx="244.1" cy="247.1" r="165.4"></circle><path class="cls-1" d="M482.4,431.5l-25.7,21.5v-205.9c0-114-92.7-206.7-206.7-206.7v11.8c107.5,0,194.9,87.4,194.9,194.9v205.9l-25.8-21.5-7.6,9.1,39.2,32.7,39.2-32.7-7.6-9.1h.1Z"></path><rect class="cls-4" width="500" height="500"></rect><path class="cls-3" d="M285,277.1l15.3,14.7c-11.8,14-29.8,21.5-51,21.5-32.6,0-58.4-19-66.3-47.1h-21v-12.9h18.6c-.2-2-.2-4.1-.2-6.3s0-4.2.2-6.3h-18.6v-12.9h21c7.9-28.2,33.7-47.1,66.3-47.1s39.2,7.5,51,21.5l-15.3,14.5c-9.4-10.1-21-15.1-34.4-15.1-19.7,0-35.4,10.1-42.4,26.1h52.8v12.9h-56.3c-.2,2-.4,4.1-.4,6.3s.2,4.2.4,6.3h56.3v12.9h-52.8c7,16,22.6,26.1,42.4,26.1s25-5,34.4-15.3v.2Z"></path></svg>